<svg xmlns="http://www.w3.org/2000/svg" viewBox="0 0 1640 200" width="1640" height="200">
  <!-- Kugghjul (vektoriserade, rena kanter) -->
  <path d="M 127.00,111.50 L 120.00,111.50 L 117.50,106.00 L 117.50,101.00 L 113.00,97.50 L 108.00,96.50 L 101.00,101.50 L 97.00,100.50 L 93.50,97.00 L 93.50,95.00 L 97.50,88.00 L 97.50,83.00 L 91.00,77.50 L 89.00,78.50 L 83.00,77.50 L 81.50,75.00 L 81.50,70.00 L 90.00,65.50 L 92.50,60.00 L 91.50,56.00 L 84.50,50.00 L 85.50,45.00 L 88.00,42.50 L 99.00,43.50 L 103.50,39.00 L 102.50,27.00 L 104.00,25.50 L 107.00,23.50 L 110.00,23.50 L 119.00,31.50 L 125.50,29.00 L 128.50,22.00 L 131.00,19.50 L 137.00,19.50 L 139.50,22.00 L 139.50,29.00 L 142.00,32.50 L 150.00,34.50 L 153.00,31.50 L 159.00,29.50 L 163.50,34.00 L 163.50,37.00 L 159.50,43.00 L 159.50,46.00 L 164.00,52.50 L 174.00,53.50 L 175.50,55.00 L 175.50,61.00 L 165.50,68.00 L 165.50,75.00 L 171.50,79.00 L 172.50,85.00 L 170.00,88.50 L 158.00,87.50 L 153.50,92.00 L 153.50,98.00 L 155.50,101.00 L 155.50,104.00 L 148.00,107.50 L 140.00,100.50 L 135.00,100.50 L 130.50,104.00 L 127.00,111.50 Z M 129.00,88.50 L 117.00,85.50 L 107.50,75.00 L 105.50,67.00 L 106.50,59.00 L 110.50,51.00 L 117.00,45.50 L 127.00,42.50 L 135.00,43.50 L 142.00,46.50 L 147.50,52.00 L 151.50,61.00 L 151.50,69.00 L 147.50,79.00 L 140.00,85.50 L 129.00,88.50 Z" fill="#69bb3f" fill-rule="evenodd"/>
  <path d="M 84.00,184.50 L 81.00,184.50 L 78.50,182.00 L 76.50,175.00 L 73.00,171.50 L 67.00,170.50 L 58.00,176.50 L 54.00,174.50 L 52.50,173.00 L 52.50,170.00 L 55.50,160.00 L 50.00,154.50 L 40.00,154.50 L 37.50,150.00 L 37.50,147.00 L 46.50,141.00 L 47.50,135.00 L 37.50,127.00 L 38.50,122.00 L 41.00,119.50 L 52.00,119.50 L 53.50,118.00 L 55.50,115.00 L 53.50,102.00 L 56.00,99.50 L 60.00,98.50 L 67.00,104.50 L 75.00,103.50 L 81.00,91.50 L 88.00,92.50 L 90.50,101.00 L 98.00,105.50 L 101.00,104.50 L 107.00,98.50 L 114.00,101.50 L 114.50,106.00 L 111.50,112.00 L 111.50,115.00 L 113.50,118.00 L 116.00,120.50 L 127.00,120.50 L 129.50,124.00 L 129.50,129.00 L 127.00,131.50 L 124.00,131.50 L 119.50,137.00 L 120.50,142.00 L 129.50,149.00 L 127.50,155.00 L 126.00,156.50 L 116.00,155.50 L 113.50,158.00 L 110.50,162.00 L 113.50,170.00 L 113.50,173.00 L 111.00,175.50 L 106.00,176.50 L 100.00,171.50 L 93.00,171.50 L 89.50,175.00 L 87.50,182.00 L 84.00,184.50 Z M 88.00,160.50 L 79.00,160.50 L 70.00,156.50 L 64.50,151.00 L 60.50,142.00 L 60.50,134.00 L 63.50,126.00 L 72.00,117.50 L 77.00,115.50 L 90.00,115.50 L 95.00,117.50 L 103.50,126.00 L 105.50,131.00 L 106.50,139.00 L 103.50,149.00 L 96.00,157.50 L 88.00,160.50 Z" fill="#747aee" fill-rule="evenodd"/>
  <path d="M 183.00,185.50 L 174.00,174.50 L 168.00,174.50 L 160.00,183.50 L 157.00,182.50 L 153.50,180.00 L 154.50,171.00 L 149.00,164.50 L 141.00,164.50 L 136.00,166.50 L 132.50,160.00 L 138.50,153.00 L 138.50,146.00 L 135.00,142.50 L 127.00,139.50 L 125.50,137.00 L 126.50,135.00 L 125.50,132.00 L 128.00,129.50 L 131.00,131.50 L 136.00,130.50 L 140.50,125.00 L 140.50,121.00 L 134.50,112.00 L 138.00,108.50 L 142.00,108.50 L 148.00,111.50 L 155.00,109.50 L 157.50,107.00 L 156.50,105.00 L 158.50,101.00 L 157.50,97.00 L 162.00,94.50 L 164.00,94.50 L 166.50,97.00 L 167.50,101.00 L 174.00,105.50 L 180.00,104.50 L 187.00,96.50 L 189.00,96.50 L 193.50,101.00 L 192.50,109.00 L 197.00,114.50 L 204.00,115.50 L 211.00,113.50 L 214.50,118.00 L 214.50,120.00 L 207.50,128.00 L 208.50,134.00 L 211.00,137.50 L 214.00,137.50 L 220.50,141.00 L 219.00,147.50 L 211.00,148.50 L 206.50,153.00 L 205.50,159.00 L 209.50,163.00 L 211.50,168.00 L 207.00,171.50 L 204.00,171.50 L 200.00,168.50 L 195.00,168.50 L 187.50,174.00 L 189.50,180.00 L 188.50,183.00 L 183.00,185.50 Z M 180.00,162.50 L 166.00,162.50 L 160.00,159.50 L 152.50,151.00 L 150.50,146.00 L 150.50,134.00 L 153.50,126.00 L 158.00,121.50 L 169.00,116.50 L 178.00,116.50 L 186.00,119.50 L 191.50,125.00 L 196.50,134.00 L 196.50,145.00 L 194.50,151.00 L 189.00,157.50 L 180.00,162.50 Z" fill="#999e97" fill-rule="evenodd"/>
  <!-- Stor text -->
  <g fill="#d4d4d4">
    <path d="M834 0H535L14 1409H322L612 504Q639 416 686 238L707 324L758 504L1047 1409H1352Z" transform="translate(262.00,92.00) scale(0.03223,-0.03223)"/>
    <path d="M137 0V1409H432V0Z" transform="translate(306.52,92.00) scale(0.03223,-0.03223)"/>
    <path d="M995 0 381 1085Q399 927 399 831V0H137V1409H474L1097 315Q1079 466 1079 590V1409H1341V0Z" transform="translate(325.36,92.00) scale(0.03223,-0.03223)"/>
    <path d="M1112 0 606 647 432 514V0H137V1409H432V770L1067 1409H1411L809 813L1460 0Z" transform="translate(373.52,92.00) scale(0.03223,-0.03223)"/>
    <path d="M137 0V1409H1245V1181H432V827H1184V599H432V228H1286V0Z" transform="translate(421.68,92.00) scale(0.03223,-0.03223)"/>
    <path d="M137 0V1409H432V228H1188V0Z" transform="translate(466.21,92.00) scale(0.03223,-0.03223)"/>
    <path d="M1386 402Q1386 210 1242.0 105.0Q1098 0 842 0H137V1409H782Q1040 1409 1172.5 1319.5Q1305 1230 1305 1055Q1305 935 1238.5 852.5Q1172 770 1036 741Q1207 721 1296.5 633.5Q1386 546 1386 402ZM1008 1015Q1008 1110 947.5 1150.0Q887 1190 768 1190H432V841H770Q895 841 951.5 884.5Q1008 928 1008 1015ZM1090 425Q1090 623 806 623H432V219H817Q959 219 1024.5 270.5Q1090 322 1090 425Z" transform="translate(507.02,92.00) scale(0.03223,-0.03223)"/>
    <path d="M1507 711Q1507 491 1420.0 324.0Q1333 157 1171.0 68.5Q1009 -20 793 -20Q461 -20 272.5 175.5Q84 371 84 711Q84 1050 272.0 1240.0Q460 1430 795 1430Q1130 1430 1318.5 1238.0Q1507 1046 1507 711ZM1206 711Q1206 939 1098.0 1068.5Q990 1198 795 1198Q597 1198 489.0 1069.5Q381 941 381 711Q381 479 491.5 345.5Q602 212 793 212Q991 212 1098.5 342.0Q1206 472 1206 711Z" transform="translate(555.18,92.00) scale(0.03223,-0.03223)"/>
    <path d="M1393 715Q1393 497 1307.5 334.5Q1222 172 1065.5 86.0Q909 0 707 0H137V1409H647Q1003 1409 1198.0 1229.5Q1393 1050 1393 715ZM1096 715Q1096 942 978.0 1061.5Q860 1181 641 1181H432V228H682Q872 228 984.0 359.0Q1096 490 1096 715Z" transform="translate(607.02,92.00) scale(0.03223,-0.03223)"/>
    <path d="M1133 0 1008 360H471L346 0H51L565 1409H913L1425 0ZM739 1192 733 1170Q723 1134 709.0 1088.0Q695 1042 537 582H942L803 987L760 1123Z" transform="translate(655.18,92.00) scale(0.03223,-0.03223)"/>
    <path d="M1307 0V854Q1307 883 1307.5 912.0Q1308 941 1317 1161Q1246 892 1212 786L958 0H748L494 786L387 1161Q399 929 399 854V0H137V1409H532L784 621L806 545L854 356L917 582L1176 1409H1569V0Z" transform="translate(722.18,92.00) scale(0.03223,-0.03223)"/>
    <path d="M137 0V1409H1245V1181H432V827H1184V599H432V228H1286V0Z" transform="translate(777.66,92.00) scale(0.03223,-0.03223)"/>
    <path d="M1112 0 606 647 432 514V0H137V1409H432V770L1067 1409H1411L809 813L1460 0Z" transform="translate(822.18,92.00) scale(0.03223,-0.03223)"/>
    <path d="M1133 0 1008 360H471L346 0H51L565 1409H913L1425 0ZM739 1192 733 1170Q723 1134 709.0 1088.0Q695 1042 537 582H942L803 987L760 1123Z" transform="translate(870.35,92.00) scale(0.03223,-0.03223)"/>
    <path d="M995 0 381 1085Q399 927 399 831V0H137V1409H474L1097 315Q1079 466 1079 590V1409H1341V0Z" transform="translate(918.51,92.00) scale(0.03223,-0.03223)"/>
    <path d="M137 0V1409H432V0Z" transform="translate(966.67,92.00) scale(0.03223,-0.03223)"/>
    <path d="M1286 406Q1286 199 1132.5 89.5Q979 -20 682 -20Q411 -20 257.0 76.0Q103 172 59 367L344 414Q373 302 457.0 251.5Q541 201 690 201Q999 201 999 389Q999 449 963.5 488.0Q928 527 863.5 553.0Q799 579 616 616Q458 653 396.0 675.5Q334 698 284.0 728.5Q234 759 199.0 802.0Q164 845 144.5 903.0Q125 961 125 1036Q125 1227 268.5 1328.5Q412 1430 686 1430Q948 1430 1079.5 1348.0Q1211 1266 1249 1077L963 1038Q941 1129 873.5 1175.0Q806 1221 680 1221Q412 1221 412 1053Q412 998 440.5 963.0Q469 928 525.0 903.5Q581 879 752 842Q955 799 1042.5 762.5Q1130 726 1181.0 677.5Q1232 629 1259.0 561.5Q1286 494 1286 406Z" transform="translate(985.51,92.00) scale(0.03223,-0.03223)"/>
    <path d="M1112 0 606 647 432 514V0H137V1409H432V770L1067 1409H1411L809 813L1460 0Z" transform="translate(1030.03,92.00) scale(0.03223,-0.03223)"/>
    <path d="M1133 0 1008 360H471L346 0H51L565 1409H913L1425 0ZM739 1192 733 1170Q723 1134 709.0 1088.0Q695 1042 537 582H942L803 987L760 1123Z" transform="translate(1078.20,92.00) scale(0.03223,-0.03223)"/>
    <path d="M834 0H535L14 1409H322L612 504Q639 416 686 238L707 324L758 504L1047 1409H1352Z" transform="translate(1145.20,92.00) scale(0.03223,-0.03223)"/>
    <path d="M137 0V1409H1245V1181H432V827H1184V599H432V228H1286V0Z" transform="translate(1189.72,92.00) scale(0.03223,-0.03223)"/>
    <path d="M1105 0 778 535H432V0H137V1409H841Q1093 1409 1230.0 1300.5Q1367 1192 1367 989Q1367 841 1283.0 733.5Q1199 626 1056 592L1437 0ZM1070 977Q1070 1180 810 1180H432V764H818Q942 764 1006.0 820.0Q1070 876 1070 977Z" transform="translate(1234.24,92.00) scale(0.03223,-0.03223)"/>
    <path d="M1112 0 606 647 432 514V0H137V1409H432V770L1067 1409H1411L809 813L1460 0Z" transform="translate(1282.40,92.00) scale(0.03223,-0.03223)"/>
    <path d="M1286 406Q1286 199 1132.5 89.5Q979 -20 682 -20Q411 -20 257.0 76.0Q103 172 59 367L344 414Q373 302 457.0 251.5Q541 201 690 201Q999 201 999 389Q999 449 963.5 488.0Q928 527 863.5 553.0Q799 579 616 616Q458 653 396.0 675.5Q334 698 284.0 728.5Q234 759 199.0 802.0Q164 845 144.5 903.0Q125 961 125 1036Q125 1227 268.5 1328.5Q412 1430 686 1430Q948 1430 1079.5 1348.0Q1211 1266 1249 1077L963 1038Q941 1129 873.5 1175.0Q806 1221 680 1221Q412 1221 412 1053Q412 998 440.5 963.0Q469 928 525.0 903.5Q581 879 752 842Q955 799 1042.5 762.5Q1130 726 1181.0 677.5Q1232 629 1259.0 561.5Q1286 494 1286 406Z" transform="translate(1330.56,92.00) scale(0.03223,-0.03223)"/>
    <path d="M773 1181V0H478V1181H23V1409H1229V1181Z" transform="translate(1375.09,92.00) scale(0.03223,-0.03223)"/>
    <path d="M1133 0 1008 360H471L346 0H51L565 1409H913L1425 0ZM739 1192 733 1170Q723 1134 709.0 1088.0Q695 1042 537 582H942L803 987L760 1123Z" transform="translate(1415.90,92.00) scale(0.03223,-0.03223)"/>
    <path d="M1393 715Q1393 497 1307.5 334.5Q1222 172 1065.5 86.0Q909 0 707 0H137V1409H647Q1003 1409 1198.0 1229.5Q1393 1050 1393 715ZM1096 715Q1096 942 978.0 1061.5Q860 1181 641 1181H432V228H682Q872 228 984.0 359.0Q1096 490 1096 715Z" transform="translate(1464.06,92.00) scale(0.03223,-0.03223)"/>
    <path d="M1133 0 1008 360H471L346 0H51L565 1409H913L1425 0ZM739 1192 733 1170Q723 1134 709.0 1088.0Q695 1042 537 582H942L803 987L760 1123Z" transform="translate(1531.06,92.00) scale(0.03223,-0.03223)"/>
    <path d="M1386 402Q1386 210 1242.0 105.0Q1098 0 842 0H137V1409H782Q1040 1409 1172.5 1319.5Q1305 1230 1305 1055Q1305 935 1238.5 852.5Q1172 770 1036 741Q1207 721 1296.5 633.5Q1386 546 1386 402ZM1008 1015Q1008 1110 947.5 1150.0Q887 1190 768 1190H432V841H770Q895 841 951.5 884.5Q1008 928 1008 1015ZM1090 425Q1090 623 806 623H432V219H817Q959 219 1024.5 270.5Q1090 322 1090 425Z" transform="translate(1579.23,92.00) scale(0.03223,-0.03223)"/>
  </g>
  <!-- Underrubrik -->
  <g fill="#dcdcd4">
    <path d="M103 711Q103 1054 287.0 1242.0Q471 1430 804 1430Q1038 1430 1184.0 1351.0Q1330 1272 1409 1098L1227 1044Q1167 1164 1061.5 1219.0Q956 1274 799 1274Q555 1274 426.0 1126.5Q297 979 297 711Q297 444 434.0 289.5Q571 135 813 135Q951 135 1070.5 177.0Q1190 219 1264 291V545H843V705H1440V219Q1328 105 1165.5 42.5Q1003 -20 813 -20Q592 -20 432.0 68.0Q272 156 187.5 321.5Q103 487 103 711Z" transform="translate(264.00,145.00) scale(0.01562,-0.01562)"/>
    <path d="M1164 0 798 585H359V0H168V1409H831Q1069 1409 1198.5 1302.5Q1328 1196 1328 1006Q1328 849 1236.5 742.0Q1145 635 984 607L1384 0ZM1136 1004Q1136 1127 1052.5 1191.5Q969 1256 812 1256H359V736H820Q971 736 1053.5 806.5Q1136 877 1136 1004Z" transform="translate(290.89,145.00) scale(0.01562,-0.01562)"/>
    <path d="M731 -20Q558 -20 429.0 43.0Q300 106 229.0 226.0Q158 346 158 512V1409H349V528Q349 335 447.0 235.0Q545 135 730 135Q920 135 1025.5 238.5Q1131 342 1131 541V1409H1321V530Q1321 359 1248.5 235.0Q1176 111 1043.5 45.5Q911 -20 731 -20Z" transform="translate(316.00,145.00) scale(0.01562,-0.01562)"/>
    <path d="M1082 0 328 1200 333 1103 338 936V0H168V1409H390L1152 201Q1140 397 1140 485V1409H1312V0Z" transform="translate(341.11,145.00) scale(0.01562,-0.01562)"/>
    <path d="M1381 719Q1381 501 1296.0 337.5Q1211 174 1055.0 87.0Q899 0 695 0H168V1409H634Q992 1409 1186.5 1229.5Q1381 1050 1381 719ZM1189 719Q1189 981 1045.5 1118.5Q902 1256 630 1256H359V153H673Q828 153 945.5 221.0Q1063 289 1126.0 417.0Q1189 545 1189 719Z" transform="translate(366.22,145.00) scale(0.01562,-0.01562)"/>
    <path d="M1167 0 1006 412H364L202 0H4L579 1409H796L1362 0ZM685 1265 676 1237Q651 1154 602 1024L422 561H949L768 1026Q740 1095 712 1182Z" transform="translate(391.33,145.00) scale(0.01562,-0.01562)"/>
    <path d="M720 1253V0H530V1253H46V1409H1204V1253Z" transform="translate(414.67,145.00) scale(0.01562,-0.01562)"/>
    <path d="M156 0V153H515V1237L197 1010V1180L530 1409H696V153H1039V0Z" transform="translate(447.11,145.00) scale(0.01562,-0.01562)"/>
    <path d="M1042 733Q1042 370 909.5 175.0Q777 -20 532 -20Q367 -20 267.5 49.5Q168 119 125 274L297 301Q351 125 535 125Q690 125 775.0 269.0Q860 413 864 680Q824 590 727.0 535.5Q630 481 514 481Q324 481 210.0 611.0Q96 741 96 956Q96 1177 220.0 1303.5Q344 1430 565 1430Q800 1430 921.0 1256.0Q1042 1082 1042 733ZM846 907Q846 1077 768.0 1180.5Q690 1284 559 1284Q429 1284 354.0 1195.5Q279 1107 279 956Q279 802 354.0 712.5Q429 623 557 623Q635 623 702.0 658.5Q769 694 807.5 759.0Q846 824 846 907Z" transform="translate(466.91,145.00) scale(0.01562,-0.01562)"/>
    <path d="M1049 389Q1049 194 925.0 87.0Q801 -20 571 -20Q357 -20 229.5 76.5Q102 173 78 362L264 379Q300 129 571 129Q707 129 784.5 196.0Q862 263 862 395Q862 510 773.5 574.5Q685 639 518 639H416V795H514Q662 795 743.5 859.5Q825 924 825 1038Q825 1151 758.5 1216.5Q692 1282 561 1282Q442 1282 368.5 1221.0Q295 1160 283 1049L102 1063Q122 1236 245.5 1333.0Q369 1430 563 1430Q775 1430 892.5 1331.5Q1010 1233 1010 1057Q1010 922 934.5 837.5Q859 753 715 723V719Q873 702 961.0 613.0Q1049 524 1049 389Z" transform="translate(486.70,145.00) scale(0.01562,-0.01562)"/>
    <path d="M103 0V127Q154 244 227.5 333.5Q301 423 382.0 495.5Q463 568 542.5 630.0Q622 692 686.0 754.0Q750 816 789.5 884.0Q829 952 829 1038Q829 1154 761.0 1218.0Q693 1282 572 1282Q457 1282 382.5 1219.5Q308 1157 295 1044L111 1061Q131 1230 254.5 1330.0Q378 1430 572 1430Q785 1430 899.5 1329.5Q1014 1229 1014 1044Q1014 962 976.5 881.0Q939 800 865.0 719.0Q791 638 582 468Q467 374 399.0 298.5Q331 223 301 153H1036V0Z" transform="translate(506.50,145.00) scale(0.01562,-0.01562)"/>
    <path d="M636 682Q636 569 554.5 485.0Q473 401 355 401Q242 401 161.5 484.0Q81 567 81 682Q81 797 162.0 876.5Q243 956 355 956Q471 956 553.5 875.5Q636 795 636 682Z" transform="translate(537.19,145.00) scale(0.01562,-0.01562)"/>
    <path d="M1106 0 543 680 359 540V0H168V1409H359V703L1038 1409H1263L663 797L1343 0Z" transform="translate(561.28,145.00) scale(0.01562,-0.01562)"/>
    <path d="M782 0H584L9 1409H210L600 417L684 168L768 417L1156 1409H1357Z" transform="translate(584.62,145.00) scale(0.01562,-0.01562)"/>
    <path d="M1167 0 1006 412H364L202 0H4L579 1409H796L1362 0ZM685 1265 676 1237Q651 1154 602 1024L422 561H949L768 1026Q740 1095 712 1182Z" transform="translate(607.97,145.00) scale(0.01562,-0.01562)"/>
    <path d="M168 0V1409H359V156H1071V0Z" transform="translate(631.31,145.00) scale(0.01562,-0.01562)"/>
    <path d="M189 0V1409H380V0Z" transform="translate(651.11,145.00) scale(0.01562,-0.01562)"/>
    <path d="M720 1253V0H530V1253H46V1409H1204V1253Z" transform="translate(662.00,145.00) scale(0.01562,-0.01562)"/>
    <path d="M168 0V1409H1237V1253H359V801H1177V647H359V156H1278V0Z" transform="translate(683.55,145.00) scale(0.01562,-0.01562)"/>
    <path d="M720 1253V0H530V1253H46V1409H1204V1253Z" transform="translate(706.89,145.00) scale(0.01562,-0.01562)"/>
    <path d="M1272 389Q1272 194 1119.5 87.0Q967 -20 690 -20Q175 -20 93 338L278 375Q310 248 414.0 188.5Q518 129 697 129Q882 129 982.5 192.5Q1083 256 1083 379Q1083 448 1051.5 491.0Q1020 534 963.0 562.0Q906 590 827.0 609.0Q748 628 652 650Q485 687 398.5 724.0Q312 761 262.0 806.5Q212 852 185.5 913.0Q159 974 159 1053Q159 1234 297.5 1332.0Q436 1430 694 1430Q934 1430 1061.0 1356.5Q1188 1283 1239 1106L1051 1073Q1020 1185 933.0 1235.5Q846 1286 692 1286Q523 1286 434.0 1230.0Q345 1174 345 1063Q345 998 379.5 955.5Q414 913 479.0 883.5Q544 854 738 811Q803 796 867.5 780.5Q932 765 991.0 743.5Q1050 722 1101.5 693.0Q1153 664 1191.0 622.0Q1229 580 1250.5 523.0Q1272 466 1272 389Z" transform="translate(739.33,145.00) scale(0.01562,-0.01562)"/>
    <path d="M168 0V1409H1237V1253H359V801H1177V647H359V156H1278V0Z" transform="translate(762.67,145.00) scale(0.01562,-0.01562)"/>
    <path d="M1381 719Q1381 501 1296.0 337.5Q1211 174 1055.0 87.0Q899 0 695 0H168V1409H634Q992 1409 1186.5 1229.5Q1381 1050 1381 719ZM1189 719Q1189 981 1045.5 1118.5Q902 1256 630 1256H359V153H673Q828 153 945.5 221.0Q1063 289 1126.0 417.0Q1189 545 1189 719Z" transform="translate(786.02,145.00) scale(0.01562,-0.01562)"/>
    <path d="M1167 0 1006 412H364L202 0H4L579 1409H796L1362 0ZM685 1265 676 1237Q651 1154 602 1024L422 561H949L768 1026Q740 1095 712 1182Z" transform="translate(811.12,145.00) scale(0.01562,-0.01562)"/>
    <path d="M1082 0 328 1200 333 1103 338 936V0H168V1409H390L1152 201Q1140 397 1140 485V1409H1312V0Z" transform="translate(834.47,145.00) scale(0.01562,-0.01562)"/>
    <path d="M1272 389Q1272 194 1119.5 87.0Q967 -20 690 -20Q175 -20 93 338L278 375Q310 248 414.0 188.5Q518 129 697 129Q882 129 982.5 192.5Q1083 256 1083 379Q1083 448 1051.5 491.0Q1020 534 963.0 562.0Q906 590 827.0 609.0Q748 628 652 650Q485 687 398.5 724.0Q312 761 262.0 806.5Q212 852 185.5 913.0Q159 974 159 1053Q159 1234 297.5 1332.0Q436 1430 694 1430Q934 1430 1061.0 1356.5Q1188 1283 1239 1106L1051 1073Q1020 1185 933.0 1235.5Q846 1286 692 1286Q523 1286 434.0 1230.0Q345 1174 345 1063Q345 998 379.5 955.5Q414 913 479.0 883.5Q544 854 738 811Q803 796 867.5 780.5Q932 765 991.0 743.5Q1050 722 1101.5 693.0Q1153 664 1191.0 622.0Q1229 580 1250.5 523.0Q1272 466 1272 389Z" transform="translate(870.47,145.00) scale(0.01562,-0.01562)"/>
    <path d="M720 1253V0H530V1253H46V1409H1204V1253Z" transform="translate(893.81,145.00) scale(0.01562,-0.01562)"/>
    <path d="M1167 0 1006 412H364L202 0H4L579 1409H796L1362 0ZM685 1265 676 1237Q651 1154 602 1024L422 561H949L768 1026Q740 1095 712 1182Z" transform="translate(915.36,145.00) scale(0.01562,-0.01562)"/>
    <path d="M1164 0 798 585H359V0H168V1409H831Q1069 1409 1198.5 1302.5Q1328 1196 1328 1006Q1328 849 1236.5 742.0Q1145 635 984 607L1384 0ZM1136 1004Q1136 1127 1052.5 1191.5Q969 1256 812 1256H359V736H820Q971 736 1053.5 806.5Q1136 877 1136 1004Z" transform="translate(938.70,145.00) scale(0.01562,-0.01562)"/>
    <path d="M720 1253V0H530V1253H46V1409H1204V1253Z" transform="translate(963.81,145.00) scale(0.01562,-0.01562)"/>
    <path d="M168 0V1409H1237V1253H359V801H1177V647H359V156H1278V0Z" transform="translate(985.36,145.00) scale(0.01562,-0.01562)"/>
    <path d="M1082 0 328 1200 333 1103 338 936V0H168V1409H390L1152 201Q1140 397 1140 485V1409H1312V0Z" transform="translate(1008.70,145.00) scale(0.01562,-0.01562)"/>
  </g>
</svg>